<svg width="19" height="19" viewBox="0 0 19 19" fill="none" xmlns="http://www.w3.org/2000/svg">
<path fill-rule="evenodd" clip-rule="evenodd" d="M18.0153 7.72844L10.5153 0.652188C10.5116 0.648989 10.5082 0.645543 10.505 0.641875C9.93281 0.121501 9.05876 0.121501 8.48656 0.641875L8.47625 0.652188L0.984688 7.72844C0.67573 8.01254 0.499936 8.41309 0.5 8.83281V17.5C0.5 18.3284 1.17157 19 2 19H6.5C7.32843 19 8 18.3284 8 17.5V13H11V17.5C11 18.3284 11.6716 19 12.5 19H17C17.8284 19 18.5 18.3284 18.5 17.5V8.83281C18.5001 8.41309 18.3243 8.01254 18.0153 7.72844V7.72844ZM17 17.5H12.5V13C12.5 12.1716 11.8284 11.5 11 11.5H8C7.17157 11.5 6.5 12.1716 6.5 13V17.5H2V8.83281L2.01031 8.82344L9.5 1.75L16.9906 8.82156L17.0009 8.83094L17 17.5Z" fill="#61788A"/>
</svg>
