<svg width="22" height="6" viewBox="0 0 22 6" fill="none" xmlns="http://www.w3.org/2000/svg">
<path fill-rule="evenodd" clip-rule="evenodd" d="M10.7001 0C9.04322 0 7.70007 1.34315 7.70007 3C7.70007 4.65685 9.04322 6 10.7001 6C12.3569 6 13.7001 4.65685 13.7001 3C13.7001 1.34315 12.3569 0 10.7001 0V0ZM10.7001 4.5C9.87165 4.5 9.20007 3.82843 9.20007 3C9.20007 2.17157 9.87165 1.5 10.7001 1.5C11.5285 1.5 12.2001 2.17157 12.2001 3C12.2001 3.82843 11.5285 4.5 10.7001 4.5V4.5ZM3.20007 0C1.54322 0 0.200073 1.34315 0.200073 3C0.200073 4.65685 1.54322 6 3.20007 6C4.85693 6 6.20007 4.65685 6.20007 3C6.20007 1.34315 4.85693 0 3.20007 0V0ZM3.20007 4.5C2.37165 4.5 1.70007 3.82843 1.70007 3C1.70007 2.17157 2.37165 1.5 3.20007 1.5C4.0285 1.5 4.70007 2.17157 4.70007 3C4.70007 3.82843 4.0285 4.5 3.20007 4.5V4.5ZM18.2001 0C16.5432 0 15.2001 1.34315 15.2001 3C15.2001 4.65685 16.5432 6 18.2001 6C19.8569 6 21.2001 4.65685 21.2001 3C21.2001 1.34315 19.8569 0 18.2001 0V0ZM18.2001 4.5C17.3716 4.5 16.7001 3.82843 16.7001 3C16.7001 2.17157 17.3716 1.5 18.2001 1.5C19.0285 1.5 19.7001 2.17157 19.7001 3C19.7001 3.82843 19.0285 4.5 18.2001 4.5V4.5Z" fill="#61788A"/>
</svg>
