<svg width="19" height="16" viewBox="0 0 19 16" fill="none" xmlns="http://www.w3.org/2000/svg">
<path fill-rule="evenodd" clip-rule="evenodd" d="M0.300048 8C0.300048 7.58579 0.635834 7.25 1.05005 7.25L10.05 7.25L10.05 1.25C10.0498 0.946471 10.2325 0.672723 10.513 0.556535C10.7934 0.440347 11.1162 0.504629 11.3307 0.719376L18.0807 7.46937C18.2215 7.61005 18.3006 7.80094 18.3006 8C18.3006 8.19906 18.2215 8.38995 18.0807 8.53063L11.3307 15.2806C11.1162 15.4954 10.7934 15.5597 10.513 15.4435C10.2325 15.3273 10.0498 15.0535 10.05 14.75L10.05 8.75L1.05005 8.75C0.635834 8.75 0.300048 8.41422 0.300048 8V8Z" fill="#121417"/>
</svg>
