<svg width="19" height="16" viewBox="0 0 19 16" fill="none" xmlns="http://www.w3.org/2000/svg">
<path fill-rule="evenodd" clip-rule="evenodd" d="M18.6806 8.53063L11.9306 15.2806C11.6376 15.5737 11.1625 15.5737 10.8694 15.2806C10.5763 14.9876 10.5763 14.5124 10.8694 14.2194L16.3397 8.75H1.65002C1.23581 8.75 0.900024 8.41421 0.900024 8C0.900024 7.58579 1.23581 7.25 1.65002 7.25H16.3397L10.8694 1.78062C10.5763 1.48757 10.5763 1.01243 10.8694 0.719375C11.1625 0.426319 11.6376 0.426319 11.9306 0.719375L18.6806 7.46937C18.8215 7.61005 18.9006 7.80094 18.9006 8C18.9006 8.19906 18.8215 8.38995 18.6806 8.53063V8.53063Z" fill="#61788A"/>
</svg>
