<svg width="19" height="16" viewBox="0 0 19 16" fill="none" xmlns="http://www.w3.org/2000/svg">
<path fill-rule="evenodd" clip-rule="evenodd" d="M18.3 8C18.3 8.41421 17.9643 8.75 17.55 8.75H8.55005V14.75C8.55029 15.0535 8.36755 15.3273 8.08714 15.4435C7.80673 15.5597 7.48393 15.4954 7.26942 15.2806L0.519424 8.53063C0.378591 8.38995 0.299459 8.19906 0.299459 8C0.299459 7.80094 0.378591 7.61005 0.519424 7.46937L7.26942 0.719375C7.48393 0.504627 7.80673 0.440345 8.08714 0.556533C8.36755 0.672722 8.55029 0.94647 8.55005 1.25V7.25H17.55C17.9643 7.25 18.3 7.58579 18.3 8V8Z" fill="#121417"/>
</svg>
