<svg width="19" height="16" viewBox="0 0 19 16" fill="none" xmlns="http://www.w3.org/2000/svg">
<path fill-rule="evenodd" clip-rule="evenodd" d="M0.519423 7.46938L7.26942 0.719377C7.56248 0.426321 8.03762 0.426321 8.33067 0.719377C8.62373 1.01243 8.62373 1.48757 8.33067 1.78063L2.86036 7.25L17.55 7.25C17.9643 7.25 18.3 7.58579 18.3 8C18.3 8.41421 17.9643 8.75 17.55 8.75L2.86036 8.75L8.33067 14.2194C8.62373 14.5124 8.62373 14.9876 8.33067 15.2806C8.03762 15.5737 7.56248 15.5737 7.26942 15.2806L0.519423 8.53063C0.378591 8.38995 0.299458 8.19906 0.299458 8C0.299458 7.80094 0.378591 7.61005 0.519423 7.46938V7.46938Z" fill="#61788A"/>
</svg>
